<?xml version="1.0" encoding="UTF-8"?>
<svg width="114px" height="22px" viewBox="0 0 114 22" version="1.1" xmlns="http://www.w3.org/2000/svg" xmlns:xlink="http://www.w3.org/1999/xlink">
    <title>#WIZZA</title>
    <g id="Page-1" stroke="none" stroke-width="1" fill="none" fill-rule="evenodd">
        <path d="M6.2109375,22 L7.32421875,16.0527344 L10.1660156,16.0527344 L9.0234375,22 L12.2460938,22 L13.3740234,16.0527344 L17.7246094,16.0527344 L17.7246094,13.0351562 L13.9453125,13.0351562 L14.6337891,9.63671875 L18.7207031,9.63671875 L18.7207031,6.57519531 L15.2050781,6.57519531 L16.3476562,0.61328125 L13.1982422,0.61328125 L12.0556641,6.57519531 L9.15527344,6.57519531 L10.2832031,0.61328125 L7.07519531,0.61328125 L5.94726562,6.57519531 L1.71386719,6.57519531 L1.71386719,9.63671875 L5.40527344,9.63671875 L4.71679688,13.0351562 L0.659179688,13.0351562 L0.659179688,16.0527344 L4.14550781,16.0527344 L3.06152344,22 L6.2109375,22 Z M10.7666016,13.0351562 L7.89550781,13.0351562 L8.58398438,9.63671875 L11.4550781,9.63671875 L10.7666016,13.0351562 Z M29.8677778,22 L32.75352,10.7792969 C32.8804731,10.28125 33.0611372,9.44873047 33.2955122,8.28173828 L33.3522748,7.99665324 C33.5536909,6.97577243 33.6812543,6.22363281 33.7349653,5.74023438 C33.7740278,6.16992188 33.9229536,7.01220703 34.1817426,8.26708984 C34.2371974,8.5359933 34.289177,8.78527832 34.3376812,9.01494489 L34.4300561,9.44812012 C34.5616678,10.0586461 34.6620021,10.492606 34.731059,10.75 L34.731059,10.75 L37.6314497,22 L42.8023481,22 L48.2515668,0.583984375 L43.7837934,0.583984375 L41.059184,12.2734375 C40.8834028,12.9765625 40.6880903,13.8969727 40.4732465,15.034668 C40.2584028,16.1723633 40.1021528,17.1220703 40.0044965,17.8837891 C39.8970747,17.0927734 39.7408247,16.1455078 39.5357465,15.0419922 C39.3306684,13.9384766 39.15977,13.1181641 39.0230512,12.5810547 L39.0230512,12.5810547 L35.902934,0.583984375 L31.6109418,0.583984375 L28.4908247,12.5810547 C28.3052778,13.2255859 28.1075239,14.1313477 27.8975629,15.2983398 C27.687602,16.465332 27.5533247,17.3271484 27.4947309,17.8837891 C27.2798872,16.3017578 26.9332075,14.4316406 26.4546918,12.2734375 L26.4546918,12.2734375 L23.715434,0.583984375 L19.2476606,0.583984375 L24.7115278,22 L29.8677778,22 Z M55.3556727,22 L55.3556727,0.583984375 L50.8146571,0.583984375 L50.8146571,22 L55.3556727,22 Z M74.5740365,22 L74.5740365,18.25 L64.0418099,18.25 L74.2957161,3.51367188 L74.2957161,0.583984375 L58.9148568,0.583984375 L58.9148568,4.33398438 L68.9050911,4.33398438 L58.6365365,19.0556641 L58.6365365,22 L74.5740365,22 Z M91.8148611,22 L91.8148611,18.25 L81.2826345,18.25 L91.5365408,3.51367188 L91.5365408,0.583984375 L76.1556814,0.583984375 L76.1556814,4.33398438 L86.1459158,4.33398438 L75.8773611,19.0556641 L75.8773611,22 L91.8148611,22 Z M97.2929905,22 L98.8457248,16.9023438 L106.653342,16.9023438 L108.206076,22 L113.098655,22 L105.510764,0.49609375 L99.9590061,0.49609375 L92.4004123,22 L97.2929905,22 Z M105.569358,13.09375 L99.988303,13.09375 C101.51174,8.16210938 102.434592,5.07128906 102.756858,3.82128906 C102.834983,4.17285156 102.964377,4.65136719 103.145041,5.25683594 C103.325705,5.86230469 104.133811,8.47460938 105.569358,13.09375 L105.569358,13.09375 Z" id="#WIZZA" fill="#FFFFFF" fill-rule="nonzero"></path>
    </g>
</svg>